<?xml version="1.0" encoding="iso-8859-1"?>
<!-- Generator: Adobe Illustrator 19.0.0, SVG Export Plug-In . SVG Version: 6.00 Build 0)  -->
<svg version="1.1" id="Layer_1" xmlns="http://www.w3.org/2000/svg" xmlns:xlink="http://www.w3.org/1999/xlink" x="0px" y="0px"
	 viewBox="0 0 511.98 511.98" style="enable-background:new 0 0 511.98 511.98;" xml:space="preserve">
<path style="fill:#FFCE54;" d="M340.065,154.232c-0.281-0.516-3.406-6.312-9.812-14.998c-7.858-10.688-20.686-25.766-39.201-40.843
	c-19.648-15.984-41.741-28.718-65.654-37.858c-29.788-11.374-62.474-17.124-97.152-17.124c-37.717,0-78.372,6.844-120.815,20.343
	c-5.046,1.609-8.148,6.672-7.289,11.891c0.859,5.234,5.422,9.015,10.71,8.937c0.055,0,0.586,0,1.555,0
	c8.641,0,54.381,0.672,106.426,14.109c29.452,7.594,55.771,17.937,78.208,30.733c27.194,15.515,48.85,34.764,64.365,57.216
	c2.031,2.953,25.335,3.406,50.162-8.438C336.393,166.373,341.534,156.967,340.065,154.232z"/>
<g>
	<path style="fill:#F6BB42;" d="M112.856,97.188l19.085-53.748c-1.227-0.016-2.461-0.031-3.695-0.031
		c-6.296,0-12.679,0.188-19.132,0.562l-17.28,48.686C98.638,93.954,105.677,95.454,112.856,97.188z"/>
	<path style="fill:#F6BB42;" d="M141.449,105.266c6.906,2.234,13.601,4.656,20.077,7.218l21.577-63.935
		c-7.023-1.375-14.164-2.453-21.405-3.281L141.449,105.266z"/>
	<path style="fill:#F6BB42;" d="M197.04,129.422c3.609,2.062,7.109,4.188,10.516,6.375l30.521-69.998
		c-4.164-1.859-8.39-3.625-12.679-5.266c-2.366-0.905-4.757-1.749-7.163-2.593l-29.249,67.091
		C191.72,126.453,194.408,127.922,197.04,129.422z"/>
</g>
<path style="fill:#E6E9ED;" d="M509.199,283.33l-77.574-85.036c-0.188-0.203-0.375-0.391-0.562-0.562l-71.747-67.747
	c-2.484-2.344-5.938-3.359-9.297-2.719c0,0-62.028,8.531-92.004,35.373c-5.047,4.531-16.015,12.188-45.201,54.467
	c-16.906,24.483-38.334,57.443-63.692,97.942c-43.108,68.871-83.239,136.744-83.646,137.432c-1.945,3.312-1.976,7.375-0.078,10.717
	c1.898,3.312,5.438,5.375,9.266,5.375H245.32c4.023,0,7.703-2.25,9.515-5.843l59.857-118.215
	c26.154,4.75,109.184,19.375,143.104,19.375l0,0c6.108,0,10.499-0.469,13.796-1.438c25.062-7.312,38.107-26.937,38.654-27.78
	c1.125-1.719,1.734-3.75,1.734-5.812v-38.342C511.98,287.86,510.996,285.298,509.199,283.33z"/>
<path style="fill:#656D78;" d="M362.659,233.917c0,5.891-4.781,10.656-10.672,10.656s-10.672-4.766-10.672-10.656
	s4.781-10.671,10.672-10.671S362.659,228.026,362.659,233.917z"/>
<path style="fill:#EC87C0;" d="M511.98,295.329l-23.515-5.156c-5.765-1.281-11.452,2.375-12.718,8.125
	c-1.25,5.75,2.391,11.438,8.14,12.688l28.093,6.188V295.329z"/>
<path style="opacity:0.1;enable-background:new    ;" d="M171.768,279.267L171.768,279.267
	c109.191-1.188,120.503-25.288,120.503-25.288l-101.16-4.578C185.041,258.636,178.588,268.588,171.768,279.267z"/>
<path style="fill:#E6E9ED;" d="M297.599,242.136l-9.703-41.326c-0.641-2.766-2.375-5.172-4.812-6.656
	c-2.422-1.484-5.344-1.938-8.109-1.266l-125.33,30.671c-4.164,1.016-7.32,4.437-7.992,8.671c-0.68,4.234,1.25,8.469,4.898,10.734
	c1.641,1.031,40.803,25.046,88.105,25.046l0,0c20.905,0,40.287-4.719,57.615-14.03C296.521,251.682,298.709,246.839,297.599,242.136
	z"/>
<polygon style="opacity:0.1;enable-background:new    ;" points="266.288,328.296 305.006,363.67 314.692,344.513 "/>
</svg>
